# xmcd
#
# Track frame offsets:
#	150
#	20952
#	34820
#	58407
#	69672
#	82730
#	104970
#	117795
#	129225
#	144020
#	175615
#	190982
#	211217
#	225525
#	240345
#	263467
#
# Disc length: 3693 seconds
#
# Revision: 1
# Processed by: cddbd v1.4PL0 Copyright (c) Steve Scherf et al.
# Submitted via: audiograbber 1.81.02
#
DISCID=d60e6b10
DTITLE=Blues Down Town - Downtracked
DYEAR=2001
DGENRE=Blues
TTITLE0=Blues obsession
TTITLE1=Last time I hear you pray
TTITLE2=Same thing
TTITLE3=lonesome lala
TTITLE4=poormouthin
TTITLE5=Somebody has got to pay
TTITLE6=done got over it
TTITLE7=Moanin for mollasses
TTITLE8=Wild, wild woman
TTITLE9=I walked the streets
TTITLE10=Tighten up on it
TTITLE11=Stockyard bluers
TTITLE12=Little girl
TTITLE13=Dont have to hunt no more
TTITLE14=jivin at the swamps
TTITLE15=I want a woman
EXTD=
EXTT0=
EXTT1=
EXTT2=
EXTT3=
EXTT4=
EXTT5=
EXTT6=
EXTT7=
EXTT8=
EXTT9=
EXTT10=
EXTT11=
EXTT12=
EXTT13=
EXTT14=
EXTT15=
PLAYORDER=
